<?xml version="1.0"?>
<svg xmlns="http://www.w3.org/2000/svg" xmlns:xlink="http://www.w3.org/1999/xlink" viewBox="0 0 801 247" height="1.7em" version="1.1">
    <g id="Page-1" stroke="none" stroke-width="1" fill="none" fill-rule="evenodd">
        <g id="Amazon_Prime_Video_logo">
            <path d="M396.5,246.3 L396.5,245.9 C396.9,245.4 397.6,245.1 398.2,245.2 C401.1,245.1 403.9,245.1 406.8,245.2 C407.4,245.2 408.1,245.4 408.5,245.9 L408.5,246.3 L396.5,246.3 Z" id="Path" fill="#D1EFFA"/>
            <path d="M408.5,245.9 C404.5,245.8 400.5,245.8 396.5,245.9 C391,245.6 385.5,245.4 380,245 C365.4,243.9 350.9,241.7 336.7,238.4 C287.6,227 244.5,204.1 206.9,170.8 C203.4,167.7 200.1,164.5 196.7,161.3 C195.9,160.6 195.2,159.6 194.8,158.6 C194.2,157.2 194.5,155.7 195.5,154.6 C196.5,153.5 198.1,153.1 199.5,153.7 C200.4,154.1 201.3,154.5 202.1,155 C238,177.2 277.2,193.4 318.3,203 C332.1,206.2 346,208.7 360,210.5 C380.1,213 400.4,213.9 420.6,213.2 C431.5,212.9 442.3,211.9 453.1,210.5 C478.3,207.3 503.2,201.6 527.3,193.6 C540,189.4 552.4,184.6 564.5,179 C566.3,178 568.5,177.7 570.5,178.2 C573.8,179 575.8,182.4 575,185.7 C574.9,186.1 574.7,186.6 574.5,187 C573.7,188.5 572.6,189.8 571.2,190.8 C559.7,199.8 547.3,207.7 534.2,214.3 C509.5,226.8 483.1,235.7 455.9,240.8 C440.2,243.6 424.4,245.3 408.5,245.9 Z" id="Path" fill="#00A8E1"/>
            <path d="M260.4,43.2 C262.9,41.7 265.5,40.1 268.2,38.7 C275.2,35.1 283,33.3 290.9,33.7 C296.6,34 301.8,35.6 305.8,39.8 C309.6,43.7 311,48.5 311.4,53.7 C311.5,54.8 311.5,55.9 311.5,57.1 L311.5,108.9 C311.5,113.4 310.9,114 306.4,114 L294.2,114 C293.4,114 292.6,114 291.8,113.9 C290.6,113.8 289.6,112.8 289.4,111.6 C289.2,110.5 289.2,109.4 289.2,108.3 L289.2,62 C289.3,60.1 289.1,58.3 288.6,56.5 C287.8,53.4 285,51.2 281.8,51 C275.9,50.6 270,51.8 264.6,54.3 C263.8,54.5 263.3,55.3 263.4,56.1 L263.4,108.7 C263.4,109.7 263.4,110.6 263.2,111.6 C263.2,113 262.1,114 260.7,114 C260.7,114 260.7,114 260.7,114 C259.2,114.1 257.7,114.1 256.1,114.1 L245.5,114.1 C241.8,114.1 241,113.2 241,109.5 L241,62.2 C241,60.5 240.9,58.7 240.5,57 C239.8,53.6 236.9,51.2 233.5,51 C227.5,50.6 221.4,51.8 216,54.4 C215.2,54.6 214.7,55.5 214.9,56.3 L214.9,109.6 C214.9,113.3 214.1,114.1 210.4,114.1 L197,114.1 C193.5,114.1 192.6,113.1 192.6,109.7 L192.6,40.3 C192.6,39.5 192.7,38.7 192.9,37.9 C193.3,36.7 194.5,36 195.7,36 L208.2,36 C210,36 211.1,37.1 211.7,38.8 C212.2,40.2 212.5,41.5 213,43 C214,43 214.6,42.3 215.3,41.9 C220.8,38.5 226.6,35.6 233.1,34.4 C238.1,33.4 243.1,33.4 248.1,34.4 C252.8,35.4 257,38.2 259.7,42.2 C259.9,42.5 260.1,42.7 260.3,42.9 C260.2,43 260.3,43 260.4,43.2 Z" id="Path" fill="#00A8E1"/>
            <path d="M467.7,93 C468.3,91 468.9,89.1 469.5,87.1 C474.1,71.6 478.7,56.2 483.3,40.7 L483.9,38.9 C484.4,37.1 486.1,36 487.9,36 L503.1,36 C506.9,36 507.7,37.1 506.4,40.7 L500.4,56.6 C493.7,74 487,91.5 480.3,108.9 C480.1,109.5 479.8,110.1 479.6,110.7 C478.9,112.8 476.8,114.2 474.6,114 C470.2,113.9 465.8,113.9 461.4,114 C458.3,114.1 456.5,112.7 455.4,109.9 C452.9,103.3 450.3,96.6 447.8,90 C441.8,74.3 435.7,58.6 429.7,42.8 C429.1,41.6 428.7,40.2 428.4,38.9 C428.1,36.9 428.8,35.9 430.8,35.9 C436.5,35.8 442.2,35.9 447.8,35.9 C450.2,35.9 451.3,37.5 451.9,39.6 C453,43.4 454.1,47.3 455.3,51.1 C459.4,65 463.4,79 467.5,92.9 C467.4,93 467.5,93 467.7,93 Z" id="Path" fill="white"/>
            <path d="M112.6,47 C113.3,46.8 113.9,46.4 114.3,45.8 C116.1,44 118,42.3 120,40.7 C125.2,36.7 131.7,34.7 138.2,35.2 C140.8,35.3 141.7,36.1 141.9,38.6 C142.1,42 142,45.5 142,48.9 C142.1,50.3 142,51.6 141.8,53 C141.4,54.8 140.7,55.5 138.9,55.7 C137.5,55.8 136.2,55.7 134.8,55.6 C128.1,55 121.6,56.3 115.3,58.4 C113.9,58.9 113.9,59.9 113.9,61 L113.9,109 C113.9,109.9 113.9,110.7 113.8,111.6 C113.7,112.9 112.7,113.9 111.4,113.9 C110.7,114 109.9,114 109.2,114 L96.2,114 C95.5,114 94.7,114 94,113.9 C92.7,113.8 91.7,112.7 91.6,111.4 C91.5,110.6 91.5,109.8 91.5,109 L91.5,41 C91.5,36.4 92,35.9 96.6,35.9 L106.2,35.9 C108.8,35.9 110,36.8 110.7,39.3 C111.4,41.8 112,44.3 112.6,47 Z" id="Path" fill="#00A8E1"/>
            <path d="M580.4,148.4 C587,148.6 593.5,149 599.9,150.7 C601.7,151.2 603.4,151.8 605.1,152.6 C607.4,153.5 608.9,155.7 609.2,158.1 C609.6,160.9 609.7,163.8 609.5,166.7 C608.2,183.8 602.9,200.3 594.1,215 C590.9,220.3 587,225.1 582.5,229.3 C581.6,230.2 580.5,230.9 579.3,231.3 C577.4,231.8 576.2,230.8 576.1,228.9 C576.2,227.9 576.4,226.9 576.8,225.9 C580.3,216.5 583.7,207.2 586.4,197.5 C588,192.2 589.1,186.8 589.8,181.3 C590,179.3 590.1,177.3 589.9,175.3 C589.8,171.9 587.6,169 584.3,168 C581.2,167 578,166.4 574.7,166.2 C565.5,165.8 556.3,166.2 547.2,167.4 L535.1,168.9 C533.8,169 532.6,168.9 531.9,167.7 C531.2,166.5 531.5,165.3 532.2,164.1 C533,163 534,162 535.2,161.3 C542.6,156 550.9,152.8 559.7,150.7 C566.5,149.3 573.4,148.6 580.4,148.4 Z" id="Path" fill="#00A8E1"/>
            <path d="M538.5,75 L538.5,111 C538.3,113 537.4,113.9 535.4,114 C530,114.1 524.7,114.1 519.3,114 C517.3,114 516.4,113 516.2,111.1 C516.1,110.5 516.1,109.8 516.1,109.2 L516.1,40 C516.2,36.9 517,36 520.1,36 L534.5,36 C537.6,36 538.5,36.9 538.5,40 L538.5,75 Z" id="Path" fill="white"/>
            <path d="M151.6,74.8 L151.6,39.3 C151.7,36.9 152.6,36 155,35.9 C160.2,35.8 165.4,35.8 170.6,35.9 C172.9,35.9 173.6,36.6 173.8,38.9 C173.9,39.8 173.9,40.6 173.9,41.5 L173.9,108.1 C173.9,109.2 173.8,110.3 173.7,111.4 C173.6,112.7 172.6,113.6 171.3,113.7 C170.7,113.8 170.2,113.8 169.6,113.8 L155.7,113.8 C155.2,113.8 154.8,113.8 154.3,113.7 C152.9,113.6 151.7,112.5 151.6,111.1 C151.5,110.3 151.5,109.5 151.5,108.7 C151.6,97.6 151.6,86.2 151.6,74.8 Z" id="Path" fill="#00A8E1"/>
            <path d="M163.2,0.1 C164.8,7.07767178e-16 166.4,0.3 167.9,0.8 C173.3,2.6 176.1,7.3 175.6,13.4 C175.2,18.6 171.3,22.8 166.1,23.6 C163.9,24 161.6,24 159.4,23.6 C153.7,22.5 149.5,18.3 149.9,11.1 C150.5,4 155.2,0.1 163.2,0.1 Z" id="Path" fill="#00A8E1"/>
            <path d="M527.4,0.1 C529.4,-0.1 531.4,0.3 533.3,1.1 C537.2,2.6 539.9,6.2 540.1,10.4 C540.9,19.5 534.8,24.1 526.7,23.9 C525.6,23.9 524.5,23.7 523.4,23.5 C517.2,22 514,17.2 514.6,10.3 C515.1,4.8 519.4,0.7 525.3,0.2 C526,0.1 526.7,-2.56739074e-16 527.4,0.1 Z" id="Path" fill="white"/>
            <path d="M76.7,66.6 C76.3,61.4 74.9,56.3 72.8,51.6 C68.7,43 62.4,36.7 52.8,34.5 C41.8,32.1 31.9,34.5 22.9,41.2 C22.3,41.8 21.6,42.3 20.8,42.7 C20.6,42.6 20.4,42.5 20.4,42.4 C20.1,41.4 19.9,40.4 19.6,39.4 C18.8,36.9 17.8,36 15.1,36 C12.1,36 9,36.1 6,36 C3.7,35.9 1.6,36.2 0,38 C1.77635684e-15,73 1.77635684e-15,108.1 0.1,143 C1.4,145.1 3.4,145.5 5.7,145.4 C9.3,145.3 12.9,145.4 16.5,145.4 C22.8,145.4 22.8,145.4 22.8,139.2 L22.8,110.7 C22.8,110 22.5,109.2 23.2,108.6 C28.2,112.5 34.3,114.9 40.6,115.5 C49.4,116.4 57.4,114.2 64.1,108.2 C69,103.7 72.6,97.9 74.5,91.5 C77.2,83.3 77.4,75 76.7,66.6 Z M52.8,87.3 C52.1,90.4 50.5,93.2 48.2,95.3 C45.6,97.5 42.4,98.8 39,98.8 C33.9,99.1 28.9,98 24.4,95.6 C23.3,95.1 22.6,94 22.7,92.8 L22.7,74.7 C22.7,68.7 22.8,62.7 22.7,56.7 C22.6,55.3 23.4,54.1 24.7,53.6 C30.2,51 35.9,49.8 41.9,51 C46.1,51.6 49.7,54.3 51.4,58.2 C52.9,61.4 53.8,64.9 54,68.4 C54.6,74.8 54.6,81.2 52.8,87.3 Z" id="Shape" fill="#00A8E1" fill-rule="nonzero"/>
            <path d="M800.1,82.2 C800.1,82.2 800.1,82.1 800.1,82.2 C800.1,82.1 800.1,82.1 800.1,82.2 Z" id="Path" fill="white"/>
            <path d="M800.2,68.8 L800.2,69.2 C799.8,68.8 799.6,68.2 799.8,67.7 L799.8,66.9 C799.8,66.9 799.8,66.8 799.9,66.8 L799.8,66.8 L799.8,65.8 L800,65.8 C800,65.7 799.9,65.7 799.9,65.6 C799.7,63.7 799.3,61.8 798.8,60 C795.1,46.8 786.8,38.1 773.3,34.7 C767,33.2 760.6,33 754.2,34 C740.7,36 731,43.2 726.3,56 C721.7,68.2 721.8,81.6 726.4,93.8 C730.4,104.9 738.4,111.9 749.9,114.8 C756,116.3 762.4,116.7 768.7,115.8 C789.7,113.3 798.4,97.4 799.8,83.6 L799.7,83.6 L799.7,82.2 C799.6,81.6 799.5,81.1 800.1,80.7 L800.1,80.9 C800.1,80.8 800.2,80.6 800.3,80.5 L800.3,69 C800.3,68.9 800.2,68.9 800.2,68.8 Z M776.2,87.8 C775.6,89.9 774.7,91.8 773.4,93.6 C771.2,96.7 767.7,98.7 763.9,99 C762,99.2 760.1,99.2 758.2,98.8 C754,98 750.5,95.2 748.8,91.3 C747.3,88.2 746.4,84.8 746.1,81.4 C745.6,75.5 745.5,69.6 746.9,63.8 C747.4,61.5 748.4,59.2 749.6,57.2 C751.8,53.6 755.6,51.3 759.8,51 C761.7,50.8 763.6,50.8 765.5,51.2 C769.5,52 772.8,54.6 774.6,58.3 C776.3,61.8 777.3,65.7 777.5,69.6 C777.6,71.4 777.7,73.2 777.6,75 C777.9,79.4 777.4,83.7 776.2,87.8 Z" id="Shape" fill="white" fill-rule="nonzero"/>
            <path d="M624.9,0.8 L611,0.8 C607.2,0.8 606.5,1.5 606.5,5.3 L606.5,37.7 C606.5,38.4 606.8,39.1 606.3,39.8 C605.4,39.7 604.9,39.1 604.2,38.7 C593.8,32.6 582.9,31.5 571.9,36.6 C564.2,40.2 559.4,46.7 556.3,54.4 C553.3,61.8 552.6,69.6 552.8,77.5 C552.8,84.9 554.5,92.2 557.8,98.8 C561.6,106.1 567.1,111.7 575.1,114.1 C586,117.5 596.2,115.8 605.5,108.9 C606.2,108.5 606.6,107.8 607.5,107.6 C608,108.7 608.4,109.9 608.6,111.1 C609,112.7 610.4,113.8 612.1,113.8 L614.5,113.8 C618.1,113.8 621.6,113.9 625.1,113.8 C627.9,113.8 628.7,112.9 628.8,110 L628.8,4.6 C628.7,1.5 627.9,0.8 624.9,0.8 Z M606.6,74.4 L606.6,92.6 C606.8,93.8 606.1,94.9 605,95.4 C600.2,98.1 594.7,99.2 589.3,98.4 C584.7,97.9 580.7,95.1 578.6,91 C577,87.8 576.1,84.4 575.8,80.9 C575,74.6 575.5,68.2 577,62.1 C577.5,60.4 578.1,58.8 579,57.2 C581.1,53.3 585.1,50.8 589.5,50.5 C594.8,50 600.1,51 604.9,53.2 C606.1,53.6 606.8,54.8 606.7,56.1 C606.5,62.3 606.6,68.3 606.6,74.4 Z" id="Shape" fill="white" fill-rule="nonzero"/>
            <path d="M348,81.3 C355.5,82.7 363.2,82.8 370.7,81.6 C375.1,81 379.3,79.7 383.2,77.6 C387.7,75 391,71.4 392.4,66.4 C395.9,53.8 390.5,41.1 377.4,36.4 C371,34.3 364.2,33.6 357.5,34.5 C341.7,36.3 331.4,45 326.7,60.1 C323.4,70.4 323.8,80.9 326.5,91.3 C330,104.6 338.8,112.5 352.1,115.3 C359.7,117 367.4,116.7 375,115.5 C379,114.8 383,113.8 386.8,112.3 C389.1,111.4 390.3,110 390.2,107.4 C390.1,105 390.2,102.5 390.2,100 C390.2,97 389,96.1 386.1,96.8 C383.2,97.5 380.4,98.1 377.5,98.7 C371.3,100 364.9,100 358.7,98.9 C350.2,97.2 344.7,89.9 345.2,80.9 C346.1,81 347.1,81.1 348,81.3 Z M345.5,66 C345.8,63.6 346.5,61.3 347.4,59.1 C350.4,51.8 356.7,49.3 363.1,49.7 C364.9,49.8 366.7,50.2 368.4,50.9 C371,52 372.7,54.4 373,57.2 C373.3,58.9 373.2,60.7 372.7,62.4 C371.5,66 368.6,67.5 365.1,68.2 C363,68.7 360.8,68.9 358.6,68.7 C354.7,68.7 350.7,68.4 346.8,67.8 C345.3,67.6 345.3,67.6 345.5,66 Z" id="Shape" fill="#00A8E1" fill-rule="nonzero"/>
            <path d="M685.3,82.3 C691.1,81.9 696.9,80.8 702.1,78 C707.4,75.4 711.1,70.5 712.2,64.7 C712.9,61.1 712.9,57.3 712.1,53.7 C710,44.7 704.3,39.1 695.7,36.2 C690.9,34.7 685.8,34.1 680.8,34.3 C664,34.7 651.2,43.2 646,60 C642.5,71.1 643,82.4 646.4,93.5 C649.9,104.9 657.9,111.8 669.3,114.9 C674.2,116.1 679.3,116.6 684.3,116.4 C691.6,116.3 698.9,114.9 705.8,112.3 C708.7,111.2 709.4,110.2 709.4,107.1 L709.4,99.9 C709.3,97 708.1,96 705.2,96.7 C703,97.3 700.9,97.8 698.7,98.3 C692,99.9 685,100.2 678.2,99 C671.4,97.7 666.8,93.8 665,87 C664.5,85 664.1,83 663.9,80.9 C664.4,80.9 664.9,80.9 665.3,81.1 C671.9,82.3 678.6,82.8 685.3,82.3 Z M664.4,66.3 C665.1,62.4 666,58.6 668.4,55.4 C672.1,50.5 677.2,49.1 683,49.7 C683.5,49.7 683.9,49.9 684.4,49.9 C691.4,51 693.1,56.6 691.8,62 C690.8,66 687.5,67.5 683.8,68.2 C681.8,68.6 679.7,68.8 677.6,68.7 C673.5,68.6 669.5,68.3 665.5,67.7 C664.6,67.6 664.2,67.2 664.4,66.3 Z" id="Shape" fill="white" fill-rule="nonzero"/>
        </g>
    </g>
</svg>
