<?xml version="1.0"?>
<!-- Todo: Viewbox needs to be added. this doesn't load properly. cutoff. -->
<svg xmlns:rdf="http://www.w3.org/1999/02/22-rdf-syntax-ns#" xmlns="http://www.w3.org/2000/svg" xmlns:cc="http://creativecommons.org/ns#" xmlns:dc="http://purl.org/dc/elements/1.1/" xml:space="preserve" viewBox="0 0 1100 415" height="17" version="1.1" y="0px" x="0px" fill="white">
  <path d="m337.49 305.39c-3 9.1088-11.3 33.532-28.2 57.756-16.1 23.923-34.801 50.849-65.101 51.35-13.9 0-23.4-3.9038-32.6-7.8075-9.6001-3.9038-19.1-8.2079-34.301-8.2079-16.1 0-26.5 4.4042-36.501 8.7084-8.7001 3.9038-17.8 7.4071-30.4 7.8075h-1.7c-27.405 0-47.306-26.03-65.606-53.05-38.501-55.65-60.601-147.74-25.5-208.2 17.8-31.73 51.2-52.15 86.796-52.55 15.6-0.40039 30.4 5.6054 43.401 10.41 9.6001 3.9038 17.4 7.0068 23.9 7.0068 5.6001 0 13.9-3.0029 23-7.0068 15.2-6.1059 34.301-13.413 55.101-12.212 42.501 3.5034 65.101 24.824 76.801 41.74l1.7 2.6025-2.2 1.7016s-0.4 0.40039-0.90001 0.90087c-12.6 8.308-42.101 32.231-41.601 74.772 0.40001 51.65 39.901 73.871 52.101 79.577 0.90001 0.40039 1.3 0.40039 1.7 0.90087l1.3 1.3012-1.2 2.5024zm186.7-136.53h-54.701v159.35c0 23.723 9.8002 33.933 32.2 33.933 5.7001 0 15.5-0.80077 18.8-1.2012l3.3-0.40038v49.448l-2 0.40038c-6.9001 2.0019-21.6 2.4023-32.2 2.4023-56.701 0-80.001-22.922-80.001-79.677v-164.26h-42.101v-49.448h42.101v-68.366h60.001v68.266h54.701l-0.1 49.548zm193.7 242.73h-61.201l-106.2-291.88h63.701l73.101 226.42 73.101-226.42h62.901l-105.4 291.88zm-529.6-380.66c14.2-17.117 38.9-30.029 60.2-30.93h2.9l0.40001 2.9028c2.1 21.721-5.4001 45.644-20.9 65.263-12.1 14.214-33 28.928-56.001 28.928-1.7 0-3.4001 0-4.6001-0.40039h-2.5l-0.40001-2.5024c-3.7-24.724 9.2001-49.448 20.9-63.261zm911.71 208.1h-112.8v-119.32h-53.301v119.21h-112.8v53.351h112.8v119.21h53.301v-119.21h112.8v-53.251z"/>
</svg>
