<?xml version="1.0"?>
<svg xmlns="http://www.w3.org/2000/svg" viewBox="0 0 1320 718" height="2.2em" fill="white">
  <linearGradient id="a" y2="178.61" gradientUnits="userSpaceOnUse" x2="1211.5" y1="178.61" x1="224.05">
    <stop stop-opacity="0" offset="0" stop-color="#33fefd"/>
    <stop offset="1" stop-color="#33fefd"/>
  </linearGradient>
  <path d="m1207.1 339.9c-28-66.3-68.2-125.8-119.3-176.9s-110.6-91.2-176.9-119.3c-68.6-29-141.5-43.7-216.6-43.7s-148 14.7-216.6 43.7c-66.3 28-125.8 68.2-176.9 119.3-29.2 29.2-54.9 61.2-76.7 95.7 10.2 3 20.1 6.1 29.9 9.5 94.1-143.4 256.3-238.2 440.3-238.2 217.9 0 405.4 133.1 485.3 322.2 1.3 3 4.2 5 7.5 5h18.8c3.9 0 6.6-4 5.2-7.6-1.3-3.3-2.6-6.5-4-9.7z" fill="url(#a)"/>
  <path d="m170.5 475.4c-11.3 0.9-22.6 1.9-34.1 2.9-11.4 1-21.7 2.5-30.9 4.2-9.1 1.8-16.5 4-22.2 6.7-5.6 2.7-8.5 6-8.5 9.8 0 3 1.1 6.1 3.4 9.4s5.2 6.5 8.7 9.6 7.2 6.2 11 9.2 7.4 5.7 10.7 8c7.3 6 16.1 11.3 26.3 16.1s20.6 8.3 31.3 10.7l4.3-86.6zm-137.6-157.4c-0.9 0-2.4 0.1-4.3 0.2-2 0.2-4.2 0.2-6.6 0.2-5.2 0-10.1-0.4-14.9-1.3-4.7-0.9-7.1-2.8-7.1-5.8 0-6.9 1.9-12.7 5.7-17.4 3.8-4.8 8.7-8.7 14.6-11.9 5.9-3.1 12.8-5.7 20.6-7.6s15.5-3.4 23.3-4.2c7.8-0.9 15.3-1.4 22.6-1.6 7.3-0.1 13.6-0.2 18.7-0.2 20.7 0 43.4 2.8 67.9 8.3s48.1 12.1 70.6 19.9c11.3 4.2 24.2 9.8 38.9 16.8 14.6 7 29.6 15.2 44.8 24.6s30.2 19.9 44.8 31.5 27.7 24.1 39.3 37.3c11.6 13.3 20.9 27.2 27.9 41.8s10.5 29.5 10.5 44.7c0 20.3-5.1 37.9-15.3 53s-23.5 27.6-40 37.6-35 17.4-55.6 22.4c-20.6 4.9-41.2 7.4-62 7.4-10.7 0-21.9-0.7-33.6-2.2s-22.8-3-33.1-4.5c-0.6 2.4-1.3 4.8-2.1 7.4-0.8 2.5-1.9 6.3-3.4 11.4-2.7 0.6-5.3 1-7.8 1.3-2.4 0.3-5.2 0.5-8.2 0.5l-10.5-0.9c-3.3-4.2-5.8-9.3-7.3-15.4s-3.1-12.6-4.6-19.5c-21-11.9-38.3-22.8-51.7-32.6s-23.2-18.2-29.3-25c-5.2-5.4-10.2-11.5-15.1-18.3-4.9-6.9-7.3-13.7-7.3-20.6 0-6.8 5-13.7 15.1-20.6 10.7-7.8 23.3-14 37.9-18.8s33.2-9.1 55.8-13l0.9-18.3c0-1.2 0.4-4.6 1.1-10.3 0.8-5.7 1.8-11.9 3-18.8s2.7-13.3 4.6-19.5c1.8-6.1 4.1-10.4 6.9-12.7 4.3 3.3 7.6 6.7 10.1 10.3 2.4 3.6 4.3 7.2 5.7 11 1.4 3.7 2.4 7.8 3 12.3s1.1 9.2 1.4 14.3c0.3 4.5 0.6 9 0.9 13.6s0.8 9.5 1.4 14.5h6.4c5.2 0 12 0.3 20.6 0.9 8.5 0.6 17.6 1.6 27.2 2.9s19.3 3.3 29 5.8c9.8 2.5 18.6 5.7 26.5 9.6s14.3 8.6 19.2 14.3 7.3 12.2 7.3 19.7c0 2.7-0.9 5.8-2.7 9.4s-4.3 6.9-7.3 10.1c-3 3.1-6.4 5.8-10.1 8.1-3.7 2.2-7.5 3.4-11.4 3.4-2.7 0-6.2-0.5-10.3-1.6-4.1-1-7.4-2.5-9.8-4.2 3.3-3.9 7.1-7.5 11.2-10.7 4.1-3.3 6.9-6.4 8.5-9.4-2.4-2.7-7-5.4-13.7-8.1s-14.6-5.1-23.5-7.4c-9-2.2-18.5-4.1-28.6-5.6s-19.7-2.2-28.8-2.2h-6.9c-1.5 0-3.2 0.2-5 0.5l0.4 97.9c7.3 4.5 15 7.2 23.1 8.3 8.1 1 15 1.6 20.8 1.6 8.2 0 17.8-0.3 28.8-0.9s22.2-2 33.6-4.2 22.6-5.3 33.6-9.2 20.8-9.1 29.5-15.7 15.7-14.5 21-23.9 8-20.8 8-34.2c0-13.1-2.7-25.7-8-37.8s-12.5-23.5-21.5-34.4-19.5-21.1-31.5-30.6-24.7-18.3-38-26.4-26.8-15.4-40.7-21.9c-13.9-6.6-27.2-12.2-40-17-27.1-10.1-53.9-17.7-80.2-22.8-26.4-5.1-54.6-7.6-84.8-7.6-6.1 0-12.4 0.3-18.8 0.9s-12.6 1.6-18.7 3.1c-7 1.5-10.5 3.3-10.5 5.4 0 0.9 0.8 1.6 2.5 2.2s3.5 1.1 5.5 1.6 3.9 0.8 5.7 1.1 3.1 0.6 3.7 0.9c1.5 0.9 2.3 2.1 2.3 3.6 0 0.8-0.6 2-1.8 3.2zm415.9 44.7c0.6 0.6 1.2 0.9 1.8 0.9 0.9 0 1.7-0.3 2.3-0.9 1.5-2.1 3.7-4.7 6.6-7.8s6-6.3 9.4-9.8c3.3-3.5 6.8-6.9 10.3-10.3s6.6-6.2 9.4-8.7v-0.5c0-0.9-0.3-1.7-0.9-2.3-11.6 2.4-20.7 7.4-27.4 14.9-6.8 7.5-10.6 15.6-11.5 24.5zm27.4 16.4c0 0.6 0.5 1.4 1.4 2.3s1.7 1.4 2.3 1.4h10.1c5.8 0 12.7-1 20.6-3s15.5-4.8 22.9-8.5c7.3-3.7 13.5-8.2 18.5-13.5s7.5-11.5 7.5-18.5c0-3.4-0.5-6.1-1.4-8.2s-4.4-3.2-10.5-3.2c-6.7 0-13.3 1.4-19.7 4.3s-12.6 6.8-18.7 11.7-12 10.4-17.6 16.5c-5.7 6.1-10.8 12.3-15.4 18.7zm-1.8 56.7c8.2 0.3 13.4 2.7 15.6 7.3 2.1 4.6 3.5 11.3 4.1 20.1 0.6 18.6 1.5 37.4 2.7 56.5 1.2 19 1.8 37.7 1.8 56 0 3.7-0.9 7.2-2.7 10.7s-5.6 5.3-11.4 5.3c-1.8 0-4-0.3-6.4-0.9s-4.6-1.2-6.4-1.8c-1.5-0.3-2.8-1.6-3.9-3.9s-2-4.7-2.7-7.3c-0.8-2.6-1.4-5.1-1.8-7.5-0.5-2.4-0.7-4.3-0.7-5.5v-13.9c0-3.5 0.1-6.8 0.2-9.8 0.2-3 0.3-6.3 0.5-9.8s0.4-8.3 0.7-14.4c0.3-3.4 0.9-11.4 1.8-24s2.9-30.6 6-53.7c0.2-2.3 1.1-3.4 2.6-3.4zm79.6-125.7c0.3 0 0.5-0.1 0.7-0.2 0.1-0.2 0.5-0.2 1.1-0.2 1.8 0 4.2 0.5 7.1 1.4s5.7 2.4 8.5 4.6c2.7 2.1 5.1 4.7 7.1 7.8s3 6.7 3 11c0 8.8-3.3 17.8-9.8 26.8-6.6 9-14.6 17.1-24 24.2-9.5 7.2-19.4 13-29.7 17.6-10.4 4.6-19.4 6.9-27 6.9-4.6 0-9.5-0.3-14.6-0.9-5.2-0.6-9.9-1.7-14.2-3.2-2.4 3.1-4.5 5.6-6.2 7.8-1.7 2.1-4.2 3.5-7.5 4.1-2.4-0.6-4.8-2.7-7.1-6.4s-3.7-8.1-4.3-13.3c0-1.2 0.2-2.5 0.5-3.9s0.6-2.7 0.9-3.9c-3.4-4.6-6.2-9-8.5-13.3s-3.4-9-3.4-14.2c0-7.6 2.6-15.5 7.8-23.8 5.2-8.2 12-15.8 20.3-22.6 8.4-6.9 17.8-12.6 28.3-17.1 10.5-4.6 21.3-6.9 32.2-6.9 10.1 0 18.7 1.7 25.8 5s11.5 7.5 13 12.7zm-15.8 162.7c-0.6 0.6-0.9 1.2-0.9 1.8s0.3 0.9 0.9 0.9c8.8 3.4 16.6 5.6 23.3 6.9 6.7 1.2 14.6 2.1 23.8 2.7 7.6 0.6 16 1.3 25.1 2.1s17.5 2.6 25.1 5.5 14 7.3 19.2 13.3c5.2 5.9 7.8 14.2 7.8 24.9 0 12.5-3 22.2-8.9 29-5.9 6.9-12.8 12-20.6 15.5s-15.5 5.6-23.1 6.4-13.3 1.1-16.9 1.1c-9.8 0-19.1-1.4-27.9-4.1s-16.6-6.3-23.3-10.5c-6.7-4.3-12-9-16-14.2s-5.9-10.1-5.9-14.6c0-5.5 1.3-10.1 3.9-13.7 2.6-3.7 5.9-6.6 10.1-8.7 4.1-2.1 8.6-3.7 13.5-4.6s9.6-1.4 14.2-1.4c8.8 0 18.5 1.1 29 3.4s20.5 5.9 30 10.7c0.6 0.6 0.9 1.2 0.9 1.8 0 1.2-0.3 2.1-0.9 2.7-1.8 1.8-5.2 3.8-10.1 6-4.9 2.1-10.2 3.2-16 3.2-3.4 0-6.9-0.5-10.8-1.6-3.8-1.1-7.8-2.3-12.1-3.7s-8.6-2.7-13-3.9-8.9-1.8-13.5-1.8c-3.3 0-6.5 0.6-9.6 1.8s-4.6 4.4-4.6 9.6c0 2.7 1.1 5 3.4 6.6 2.3 1.7 5.3 2.8 8.9 3.4 3.7 0.6 7.6 1 11.9 1.1 4.3 0.2 8.5 0.2 12.8 0.2 2.1 0 7.1-0.5 14.9-1.4s15.8-2.4 24.2-4.3c8.4-2 15.9-4.5 22.6-7.5s10.1-6.7 10.1-11c0-4-2.6-7.4-7.8-10.3s-11.4-5.3-18.7-7.1-14.8-3.3-22.4-4.3c-7.6-1.1-13.9-1.6-18.8-1.6-13.1-0.3-23.6-0.9-31.5-1.8s-13.9-2.4-18.1-4.3c-4.1-2-6.8-4.6-8-7.8s-1.8-7.2-1.8-12.1c0-7 2.1-13.1 6.4-18.3s9.7-9.4 16.2-12.8c6.6-3.4 13.6-6 21.3-8 7.6-2 14.9-3.5 21.7-4.6 6.9-1.1 12.7-1.7 17.4-2.1 4.7-0.3 7.4-0.5 8-0.5 11.6 0 22.3 0.8 32.2 2.5s18.7 3.4 26.3 5.3c1.5 0.3 2.7 0.9 3.6 1.8s1.4 2.6 1.4 5c-0.3 2.7-1.5 5-3.4 6.6-2 1.7-4.2 3-6.6 3.9-1.8 0.6-4.3 1.1-7.5 1.6s-5.7 0.8-7.5 1.1c-4 0.6-9.6 1.1-16.9 1.6s-14.9 1-22.6 1.6c-7.8 0.6-15.2 1.2-22.2 1.8s-12.3 1.2-16 1.8c-7.6 1.2-13.3 2.3-16.9 3.2-3.8 1.5-6.8 2.7-9.3 4.2zm213.1-55.3c0-1.8 0.2-3.9 0.7-6.2s1.7-3.4 3.9-3.4c3.1 0 7.4 2.7 13 8s11.1 12.8 16.5 22.4c5.3 9.6 10 21.1 13.9 34.5 4 13.4 5.9 28 5.9 43.9 0 7-0.8 14.1-2.3 21.3s-3.8 13.7-6.9 19.7c-3.1 5.9-6.8 10.8-11.2 14.6s-9.4 5.7-14.9 5.7c-4.3 0-8.7-2.1-13.3-6.4s-8.9-9.5-13-15.8-8-13-11.7-20.3-7-14.1-10.1-20.3c-3-6.2-5.7-11.5-8-15.8s-3.9-6.4-4.8-6.4c-1.2 0-2.3 1.7-3.2 5-0.3 1.5-0.6 5.2-0.9 11s-0.6 12.3-0.9 19.7c-0.3 7.3-0.7 14.4-1.1 21.3-0.5 6.9-1 12.1-1.6 15.8-0.3 1.5-0.8 3.5-1.4 5.9s-1.4 4.8-2.3 7.1-2.2 4.3-3.9 5.9c-1.7 1.7-3.7 2.5-6.2 2.5-3.7 0-6.6-1.4-8.9-4.1s-4.1-6-5.5-9.8-2.3-7.8-2.7-11.9c-0.5-4.1-0.7-7.5-0.7-10.3 0-4 0.3-9.4 0.9-16.2 0.6-6.9 1.5-14.3 2.7-22.4s2.7-16.1 4.6-24.2c1.8-8.1 4-15.5 6.4-22.2s5-12.2 7.8-16.5c2.7-4.3 5.8-6.4 9.1-6.4s7.5 3.1 12.6 9.4c5 6.2 10.4 13.9 16.2 22.9s11.8 18.5 18.1 28.6 12.4 18.9 18.5 26.5c2.4 2.4 3.5 3.7 3.2 3.7 1.5 0 2.4-1 2.5-3 0.2-2 0.2-5 0.2-8.9 0-10.4-0.5-19.3-1.6-26.7-1.1-7.5-2.5-14.6-4.3-21.5s-4-14.1-6.4-21.7-5-16.8-7.8-27.4l-1.4-5.5 0.3-2.1zm164.1 137.8c0 3.3-0.9 5.6-2.7 6.9-3.1 2.4-7 5.4-11.9 8.9s-10.4 6.9-16.7 10.3-12.9 6.2-19.9 8.5-14.3 3.4-21.9 3.4c-12.8 0-22.1-4-27.9-11.9s-8.7-16.8-8.7-26.5c0-5.2 1.3-11.2 3.9-18.1s5.1-13.8 7.5-20.8c-0.6-2.4-1.4-4.4-2.3-5.9s-1.4-3.5-1.4-5.9c0-1.8 0.2-3.4 0.7-4.6s1-2.7 1.6-4.6c1.8-0.6 3.7-1.3 5.7-2.1s4-1.3 6.2-1.6l11-25.1c-2.7-1.2-5.6-2.5-8.7-3.9s-5.9-2.9-8.5-4.6-4.7-3.5-6.4-5.5-2.5-4.2-2.5-6.6 1-4.1 3-5 5-1.5 8.9-1.8c4.9-0.3 10-0.9 15.3-1.8s11.1-1.9 17.4-3 13.2-2.1 20.8-3 16.2-1.4 25.6-1.4c2.1 0 4.6 0.2 7.3 0.5s6.6 1.2 11.4 2.7c2.1 2.4 5.1 5.8 8.9 10.1s5.7 8.4 5.7 12.3c0 1.2-0.9 2.4-2.7 3.4-1.8 1.1-4 2.1-6.4 3s-5.1 1.8-8 2.5c-2.9 0.8-5.4 1.1-7.5 1.1-4.9 0.3-9 0.5-12.3 0.7-3.4 0.2-6.2 0.2-8.7 0.2-2.4 0-4.9 0.1-7.3 0.2-2.4 0.2-5.2 0.2-8.2 0.2-3.1 0-5.3 0.2-6.9 0.5-0.9 0.9-2.1 2.9-3.4 5.9-1.4 3-2.1 7.5-2.1 13.3 0 0.9 0.3 1.9 0.9 3s1.7 1.6 3.2 1.6h33.8l6.4 0.9c1.2 1.5 2 3.6 2.3 6.2s0.5 5 0.5 7.1c0 1.8-0.3 4-0.9 6.6s-2 4-4.1 4.3c-4.3 0.3-11.1 0.6-20.4 0.9s-19.7 0.5-31.3 0.5c-1.2 0-2.1 0.6-2.7 1.8-1.2 4.9-2.7 9.9-4.6 15.1-1.8 5.2-4 10.4-6.4 15.5 1.2 0 6-0.8 14.4-2.5s19.9-3.3 34.5-4.8c2.4-0.3 5-0.5 7.5-0.7 2.6-0.2 5.1-0.2 7.6-0.2 2.7 0 5.3 1.5 7.8 4.6 2.4 3.1 3.6 6.1 3.6 9.2zm80.9-5.1c15.9-1.8 30.8-8.8 44.8-21 13.1-11.3 19.7-26.2 19.7-44.8 0-2.4-0.2-5.2-0.7-8.2-0.5-3.1-2.2-4.6-5.3-4.6-1.8 0-4.3 1.1-7.3 3.4-3.1 2.3-6.1 5-9.1 8s-5.9 6.2-8.7 9.6c-2.7 3.4-5 6.1-6.9 8.2-1.2 1.8-3.1 5-5.7 9.6s-5.3 9.5-8.2 14.9c-2.9 5.3-5.5 10.4-7.8 15.1s-3.9 8-4.8 9.8zm-57.6 167.8c-9.1-0.9-16.5-4.8-22.2-11.7-5.6-6.9-8.5-15.2-8.5-24.9 0-2.1 0.5-6.7 1.6-13.7s2.8-15.8 5.3-26.3c2.4-10.5 5.8-22.6 10.1-36.1s9.6-28 16-43.2c-2.4-5.5-4.4-11-5.9-16.7-1.5-5.6-2.3-11.2-2.3-16.7 0-11.9 2.4-23.9 7.3-36.1s10.4-23.2 16.7-33.1c6.2-9.9 12.3-18.1 18.3-24.5 5.9-6.4 10.1-9.8 12.6-10.1 3.4 0.6 5.4 1.8 6.2 3.7 0.8 1.8 1.1 4.9 1.1 9.1 0 4.6-1.5 9.2-4.6 13.7-3.1 4.6-8.1 12.2-15.1 22.9-3.7 5.8-7.5 13-11.7 21.5-4.1 8.5-6.2 16.9-6.2 25.1 0 0.9 0.1 1.9 0.2 3s0.5 1.9 1.1 2.5h0.9c0.3 0 0.9-0.6 1.8-1.8 5.5-7.3 12.2-15.8 20.1-25.4s16.2-18.7 24.7-27.4 16.8-16.1 24.9-22.2 15-9.1 20.8-9.1 10.7 2.1 14.6 6.4c4 4.3 7 9.4 9.1 15.3s3.7 12.1 4.6 18.5 1.4 11.9 1.4 16.4c0 13.4-3.7 25.8-11 37-7.3 11.3-16.2 21-26.5 29.3-10.4 8.2-21.2 14.6-32.5 19.2s-20.7 6.9-28.4 6.9c-1.5 0-3.1 0.1-4.8 0.2-1.7 0.2-3.4 0.4-5.3 0.7-4.6 13.1-8.3 24.6-11.2 34.5s-5.5 19.4-7.8 28.6c-2.3 9.1-4.5 18.5-6.6 28.1s-4.7 20.5-7.8 32.7l-1 3.7zm381.3-236v17.5c0 3.5-2.8 6.3-6.3 6.3h-80.1c0.1 3.7 0.1 7.3 0.1 11 0 23.1-1.2 46.1-3.7 68.8-0.4 3.3-3.2 5.9-6.6 5.9h-16.9c-3.9 0-7-3.4-6.6-7.3 2.5-22.1 3.8-44.6 3.8-67.3 0-3.7 0-7.3-0.1-11h-79c-3.5 0-6.3-2.8-6.3-6.3v-17.6c0-3.5 2.8-6.3 6.3-6.3h77.7c-1.8-26.9-5.5-53.3-10.8-79.1-0.8-4.1 2.3-7.9 6.5-7.9h17.2c3.1 0 5.9 2.2 6.5 5.3 5.3 26.9 8.9 54.1 10.7 81.7h81.3c3.5 0 6.3 2.8 6.3 6.3z"/>
</svg>
