<?xml version="1.0" encoding="UTF-8" standalone="no"?>
<!-- Generator: Adobe Illustrator 19.0.0, SVG Export Plug-In . SVG Version: 6.00 Build 0)  -->
<svg xmlns:dc="http://purl.org/dc/elements/1.1/" xmlns:cc="http://creativecommons.org/ns#" xmlns:rdf="http://www.w3.org/1999/02/22-rdf-syntax-ns#" xmlns:svg="http://www.w3.org/2000/svg" xmlns="http://www.w3.org/2000/svg" xmlns:xlink="http://www.w3.org/1999/xlink" xmlns:sodipodi="http://sodipodi.sourceforge.net/DTD/sodipodi-0.dtd" xmlns:inkscape="http://www.inkscape.org/namespaces/inkscape" version="1.1" viewBox="2600 -200 1100.0378 190.60001" xml:space="preserve" height="1.2em" fill="white">
  <metadata id="metadata3486"/>
  <defs id="defs3484"/>
  <style type="text/css" id="style3439">
	.st0{fill:url(#XMLID_5_);}
	.st1{clip-path:url(#XMLID_6_);fill:url(#SVGID_1_);}
	.st2{clip-path:url(#XMLID_6_);fill:url(#SVGID_2_);}
	.st3{clip-path:url(#XMLID_6_);fill:url(#SVGID_3_);}
</style>
  <path d="m 2735.5,-10.2 -50.7,0 0,-72.3 -32.8,0 0,72.3 -52,0 0,-186.5 51.9,0 0,69.6 32.8,0 0,-69.6 50.7,0 0,186.5 0.1,0 z m 232.4,0.8 c 51.9,0 94.3,-43.2 94.3,-95.8 0,-53.4 -42.4,-94.7 -94.3,-94.7 -52.6,0 -79.2,38.2 -85.6,53.8 0,-23.1 -23.1,-50.7 -49.9,-50.7 l -86.6,0 0,186.6 80.6,0 c 32.8,0 55.9,-28 55.9,-52.6 7.3,15.2 33.1,53.4 85.6,53.4 l 0,0 z M 2820,-85.2 c 7.5,0 13.5,7.3 13.5,15.6 0,8.7 -6,16 -13.5,16 l -25.8,0 0,-31.6 25.8,0 0,0 z m 0,-70 c 7.5,0 13.5,7.3 13.5,15.6 0,8.3 -6,15.6 -13.5,15.6 l -25.8,0 0,-31.2 25.8,0 0,0 z m 34.1,50 c 6,-0.4 15.8,-7.3 19.5,-11.4 -1.4,5 -1.4,20.8 0,25.8 -4.1,-6.1 -13.5,-13.3 -19.5,-14.4 l 0,0 z m 66.5,0 c 0,-26.3 21.4,-47.5 47.7,-47.4 26.4,0.2 47.4,21.7 47.1,48.1 -0.4,26 -21.4,46.9 -47.4,46.9 -26.2,0 -47.4,-21.2 -47.4,-47.6 l 0,0 z m 47.3,37.4 c 20.2,0 37.2,-16.6 37.2,-37.4 0,-20.8 -17,-37.2 -37.2,-37.2 -20.8,0 -37.4,16.4 -37.4,37.2 0,20.8 16.6,37.4 37.4,37.4 l 0,0 z" id="path3441"/>
  <linearGradient id="XMLID_5_" gradientUnits="userSpaceOnUse" x1="3080.6379" y1="-104.7449" x2="3700" y2="-104.7449" gradientTransform="translate(0,0.1)">
    <stop offset="0" style="stop-color:#991EEB" id="stop3444"/>
    <stop offset="0.399" style="stop-color:#5822B4" id="stop3446"/>
    <stop offset="0.727" style="stop-color:#5822B4" id="stop3448"/>
    <stop offset="1" style="stop-color:#991EEB" id="stop3450"/>
  </linearGradient>
  <path id="XMLID_1_" class="st0" d="m 3333.2,-130.7 c -1,-45.2 -33,-69.1 -72.2,-69.1 -21.5,0 -40.9,7.2 -54.1,21.2 -13.2,-14 -32.6,-21.2 -54.1,-21.2 -39.2,0 -71.2,24 -72.2,69.2 0,0.1 0,0.2 0,0.3 l 0,103.1 c 0,9.5 7.7,17.1 17.1,17.1 l 16.2,0 c 1.6,0 2.9,-1.3 2.9,-2.9 l 0,-117.4 0,0 c 0.7,-22.3 16.5,-34.1 36,-34.1 19.5,0 35.3,11.8 36,34.1 l 0,0 0,103.1 c 0,9.5 7.7,17.1 17.1,17.1 l 16.2,0 c 1.6,0 2.9,-1.3 2.9,-2.9 l 0,-117.4 0,0 c 0.7,-22.3 16.5,-34.1 36,-34.1 19.5,0 35.3,11.8 36,34.1 l 0,0 0,103.1 c 0,9.5 7.7,17.1 17.1,17.1 l 16.2,0 c 1.6,0 2.9,-1.3 2.9,-2.9 l 0,-117.4 c 0.1,0.1 0,0 0,-0.1 z m 364.7,-66.2 -27.5,0 c -7.6,0 -14.7,3.8 -19,10.1 l -30.4,45 c -4,5.9 -12.6,5.9 -16.6,0 l -30.4,-45 c -4.2,-6.3 -11.4,-10.1 -19,-10.1 l -27.5,0 c -1.7,0 -2.7,1.9 -1.8,3.3 l 54.2,80.4 c 3.9,5.8 3.9,13.4 0,19.2 l -54.2,80.4 c -1,1.4 0.1,3.3 1.8,3.3 l 27.5,0 c 7.6,0 14.7,-3.8 19,-10.1 l 30.4,-45 c 4,-5.9 12.6,-5.9 16.6,0 l 30.4,45 c 4.2,6.3 11.4,10.1 19,10.1 l 27.5,0 c 1.7,0 2.7,-1.9 1.8,-3.3 l -54.3,-80.3 c -3.9,-5.8 -3.9,-13.4 0,-19.2 l 54.2,-80.4 c 1,-1.4 0,-3.4 -1.7,-3.4 z m -184.6,0 -16.2,0 c -8.2,0 -15.1,5.8 -16.8,13.5 -14.4,-11 -32.5,-16.6 -52,-16.6 -47.4,0 -85.9,33 -85.9,95.3 0,62.3 38.4,95.3 85.9,95.3 19.4,0 37.3,-5.5 51.7,-16.3 0.8,8.7 8.1,15.6 17.1,15.6 l 16.2,0 c 1.6,0 2.9,-1.3 2.9,-2.9 l 0,-181 c -0.1,-1.6 -1.3,-2.9 -2.9,-2.9 z m -85,152.1 c -28.3,0 -51.3,-20.7 -51.3,-59.8 0,-39.1 23,-59.8 51.3,-59.8 28.3,0 51.3,20.7 51.3,59.8 0,39.1 -23,59.8 -51.3,59.8 z" style="fill:url(#XMLID_5_)"/>
  <g id="g3453" transform="translate(0,0.1)">
    <defs id="defs3455">
      <path id="XMLID_2_" d="m 3333.2,-130.8 c -1,-45.2 -33,-69.1 -72.2,-69.1 -21.5,0 -40.9,7.2 -54.1,21.2 -13.2,-14 -32.6,-21.2 -54.1,-21.2 -39.2,0 -71.2,24 -72.2,69.2 0,0.1 0,0.2 0,0.3 l 0,103.1 c 0,9.5 7.7,17.1 17.1,17.1 l 16.2,0 c 1.6,0 2.9,-1.3 2.9,-2.9 l 0,-117.4 0,0 c 0.7,-22.3 16.5,-34.1 36,-34.1 19.5,0 35.3,11.8 36,34.1 l 0,0 0,103.1 c 0,9.5 7.7,17.1 17.1,17.1 l 16.2,0 c 1.6,0 2.9,-1.3 2.9,-2.9 l 0,-117.4 0,0 c 0.7,-22.3 16.5,-34.1 36,-34.1 19.5,0 35.3,11.8 36,34.1 l 0,0 0,103.1 c 0,9.5 7.7,17.1 17.1,17.1 l 16.2,0 c 1.6,0 2.9,-1.3 2.9,-2.9 l 0,-117.4 c 0.1,0.1 0,0 0,-0.1 z m 364.7,-66.2 -27.5,0 c -7.6,0 -14.7,3.8 -19,10.1 l -30.4,45 c -4,5.9 -12.6,5.9 -16.6,0 l -30.4,-45 c -4.2,-6.3 -11.4,-10.1 -19,-10.1 l -27.5,0 c -1.7,0 -2.7,1.9 -1.8,3.3 l 54.2,80.4 c 3.9,5.8 3.9,13.4 0,19.2 l -54.2,80.4 c -1,1.4 0.1,3.3 1.8,3.3 l 27.5,0 c 7.6,0 14.7,-3.8 19,-10.1 l 30.4,-45 c 4,-5.9 12.6,-5.9 16.6,0 l 30.4,45 c 4.2,6.3 11.4,10.1 19,10.1 l 27.5,0 c 1.7,0 2.7,-1.9 1.8,-3.3 L 3645.4,-94 c -3.9,-5.8 -3.9,-13.4 0,-19.2 l 54.2,-80.4 c 1,-1.4 0,-3.4 -1.7,-3.4 z m -184.6,0 -16.2,0 c -8.2,0 -15.1,5.8 -16.8,13.5 -14.4,-11 -32.5,-16.6 -52,-16.6 -47.4,0 -85.9,33 -85.9,95.3 0,62.3 38.4,95.3 85.9,95.3 19.4,0 37.3,-5.5 51.7,-16.3 0.8,8.7 8.1,15.6 17.1,15.6 l 16.2,0 c 1.6,0 2.9,-1.3 2.9,-2.9 l 0,-181 c -0.1,-1.6 -1.3,-2.9 -2.9,-2.9 z m -85,152.1 c -28.3,0 -51.3,-20.7 -51.3,-59.8 0,-39.1 23,-59.8 51.3,-59.8 28.3,0 51.3,20.7 51.3,59.8 0,39.1 -23,59.8 -51.3,59.8 z"/>
    </defs>
    <clipPath id="XMLID_6_">
      <use xlink:href="#XMLID_2_" style="overflow:visible" id="use3459" x="0" y="0" width="100%" height="100%"/>
    </clipPath>
    <radialGradient id="SVGID_1_" cx="1494.3917" cy="-276.44141" r="164.5752" gradientTransform="matrix(0.672,0,0,0.8748,2225.512,101.9935)" gradientUnits="userSpaceOnUse">
      <stop offset="0" style="stop-color:#7BA7F2;stop-opacity:0.5" id="stop3462"/>
      <stop offset="1" style="stop-color:#7BA7F2;stop-opacity:0" id="stop3464"/>
    </radialGradient>
    <ellipse class="st1" cx="3229.7" cy="-139.8" rx="110.6" ry="144" id="ellipse3466" clip-path="url(#XMLID_6_)" style="fill:url(#SVGID_1_)"/>
    <radialGradient id="SVGID_2_" cx="3339.8582" cy="-386.74179" r="227.5584" gradientTransform="matrix(1,0,0,0.7081,0,254.0226)" gradientUnits="userSpaceOnUse">
      <stop offset="0.2" style="stop-color:#7BA7F2" id="stop3469"/>
      <stop offset="1" style="stop-color:#7BA7F2;stop-opacity:0" id="stop3471"/>
    </radialGradient>
    <ellipse class="st2" cx="3339.8999" cy="-19.799999" rx="227.60001" ry="161.10001" id="ellipse3473" clip-path="url(#XMLID_6_)" style="fill:url(#SVGID_2_)"/>
    <radialGradient id="SVGID_3_" cx="3479.5854" cy="-189.1615" r="123.7732" gradientUnits="userSpaceOnUse">
      <stop offset="0" style="stop-color:#7BA7F2" id="stop3476"/>
      <stop offset="1" style="stop-color:#7BA7F2;stop-opacity:0" id="stop3478"/>
    </radialGradient>
    <circle class="st3" cx="3479.6001" cy="-189.2" r="123.8" id="circle3480" clip-path="url(#XMLID_6_)" style="fill:url(#SVGID_3_)"/>
  </g>
</svg>
