<svg xmlns="http://www.w3.org/2000/svg" viewBox="0 0 987.17334 482.95999">
  <path d="M930.75.001H56.397C25.292.001 0 25.313 0 56.417v370.136c0 31.104 25.292 56.407 56.396 56.407H930.75c31.104 0 56.416-25.303 56.416-56.407V56.417c0-31.104-25.312-56.416-56.416-56.416" fill="#e6b91e"></path>
  <path d="M142.136 102.283V383.96h73.052V102.283h-73.052M371.104 102.283l-16.927 131.625-10.385-71.543c-3.136-22.937-6-43.01-8.865-60.082h-94.76V383.96h64.03l.282-185.959 26.896 185.959h45.604l25.666-190.052.136 190.052h63.886V102.283h-95.563M580.959 153.085c2.853 1.635 4.781 4.239 5.604 7.916.812 3.552 1.229 11.74 1.229 24.438v109.084c0 18.853-1.23 30.322-3.699 34.562-2.448 4.228-8.864 6.271-19.385 6.271V150.501c7.917 0 13.376.812 16.25 2.584zm-.688 230.875c17.48 0 30.584-.959 39.333-2.865 8.584-1.906 15.97-5.187 21.833-10.104 5.875-4.792 10.115-11.468 12.427-19.938 2.459-8.458 3.824-25.385 3.824-50.645v-98.855c0-26.625-1.095-44.51-2.595-53.656-1.634-9.01-5.729-17.344-12.29-24.709-6.418-7.385-15.97-12.708-28.396-15.968-12.428-3.281-32.907-4.937-68.271-4.937h-54.48V383.96h88.615M777.708 315.699c0 13.521-.687 22.25-2.052 25.802-1.364 3.552-7.239 5.312-11.75 5.312-4.354 0-7.24-1.624-8.729-5.166-1.365-3.416-2.188-11.334-2.188-23.76V243.47c0-12.844.678-20.762 1.918-24.043 1.364-3.135 4.229-4.77 8.457-4.77 4.5 0 10.5 1.917 12.021 5.469 1.5 3.677 2.323 11.468 2.323 23.344zm-95.177-213.416V383.96h65.824l4.634-17.885c5.866 7.238 12.428 12.552 19.656 16.249 7.251 3.541 17.886 5.322 26.21 5.322 11.478 0 21.572-3 29.905-9.145 8.47-6 13.803-13.24 15.99-21.448 2.323-8.312 3.417-20.874 3.417-37.677v-79.041c0-17.063-.282-28.136-1.094-33.312-.698-5.188-3.021-10.522-6.698-15.991-3.823-5.457-9.146-9.676-16.25-12.697-7.24-3-15.562-4.5-25.27-4.5-8.324 0-19.104 1.645-26.344 5.062-7.094 3.271-13.656 8.323-19.522 15.011v-91.625h-70.458" fill="#010101" fill-rule="evenodd"></path>
</svg>