<?xml version="1.0"?>
<!-- Height should be 24 to look good -->
<svg xmlns:rdf="http://www.w3.org/1999/02/22-rdf-syntax-ns#" xmlns="http://www.w3.org/2000/svg" xmlns:cc="http://creativecommons.org/ns#" xmlns:dc="http://purl.org/dc/elements/1.1/" xml:space="preserve" viewBox="-99 247 900 277" height="24" version="1.1" y="0px" x="0px">
  <style type="text/css">
	.st0{fill:#069DE0;}
	.st1{fill:#6E55DC;}
	.st2{fill:#05AC3F;}
	.st3{fill:#EF1541;}
	.st4{fill:#FF7112;}
	.st5{fill:#FCCC12;}
</style>
  <g transform="matrix(1 0 0 .99928 0 .17821)">
    <path d="m-41.2 332.6c-31.9 0-57.8 25.9-57.8 57.8v133.8h27.4v-74.2l10.1 10.6 40.3-15.9c22.9-9 37.9-29.7 37.9-54.3 0-31.9-26-57.8-57.9-57.8zm10.3 87.9-40.7 15.9v-45.9c0-18.5 13.8-31.7 30.4-31.7s30.4 13.4 30.4 31.7c0 11.5-5.5 24.2-20.1 30zm473.7-87.9c-31.9 0-57.8 25.9-57.8 57.8s25.9 57.8 57.8 57.8 57.8-25.9 57.8-57.8-25.9-57.8-57.8-57.8zm0 89.5c-17.5 0-30.4-14-30.4-31.7s13.2-31.7 30.4-31.7c17.5 0 30.4 14 30.4 31.7 0 17.8-12.9 31.7-30.4 31.7zm125.2-63.4c11.9 0 21.6 6.5 26.7 16.2l21.5-16.4c-10.4-15.5-28-25.7-48.1-25.7-31.9 0-57.8 25.9-57.8 57.8s25.9 57.8 57.8 57.8c20 0 37.7-10.3 48.1-25.7l-21.5-16.4c-5 9.7-14.7 16.2-26.7 16.2-17.5 0-30.4-14-30.4-31.7s13.2-32.1 30.4-32.1zm-234 0c11.9 0 21.6 6.5 26.7 16.2l21.5-16.4c-10.4-15.5-28-25.7-48.1-25.7-31.9 0-57.8 25.9-57.8 57.8s25.9 57.8 57.8 57.8c20 0 37.7-10.3 48.1-25.7l-21.5-16.4c-5 9.7-14.7 16.2-26.7 16.2-17.5 0-30.4-14-30.4-31.7s13.1-32.1 30.4-32.1zm-95.9-12.3c-9.3-9.7-21.6-13.8-34.5-13.8-26.9 0-54.1 24.4-54.1 57.8s27.2 57.8 54.1 57.8c12.9 0 25.2-4.1 34.5-13.8v10.4h27.4v-108.7h-27.4v10.3zm-30.4 75.7c-17.5 0-30.8-14-30.8-31.7s13.6-31.7 30.8-31.7c17.5 0 30.4 14 30.4 31.7 0 17.8-12.8 31.7-30.4 31.7zm484.7-35.6h-12.3l47.6-50.6h-35.3l-38.4 41.5v-100.8h-27.4v168.3h27.4v-31l15.1-16 32.3 47h33.2l-42.2-58.4zm-608.9-53.9c-31.9 0-57.8 25.9-57.8 57.8s25.9 57.8 57.8 57.8c19 0 36.9-9.1 47.2-23.3l-22-15.3c-2.6 4.3-11 12.5-25.2 12.5-13.1 0-23.7-7.8-28.2-19.2h83.4c0.9-4.1 1.3-8.2 1.3-12.5 0.2-31.9-24.6-57.8-56.5-57.8zm-28 45.3c4.5-11.4 15.1-19.2 28-19.2 13.1 0 22.9 7.8 27.1 19.2h-55.1z" fill="white"/>
    <path d="m784.4 428.5c-9.1 0-16.6 7.5-16.6 16.6s7.5 16.6 16.6 16.6 16.6-7.5 16.6-16.6-7.5-16.6-16.6-16.6z" class="st0" fill="#069de0"/>
    <path d="m784.4 383.2c-9.1 0-16.6 7.5-16.6 16.6s7.5 16.6 16.6 16.6 16.6-7.5 16.6-16.6c-0.2-9.4-7.5-16.6-16.6-16.6z" class="st1" fill="#6e55dc"/>
    <path d="m784.4 473.8c-9.1 0-16.6 7.5-16.6 16.6s7.5 16.6 16.6 16.6 16.6-7.5 16.6-16.6-7.5-16.6-16.6-16.6z" class="st2" fill="#05ac3f"/>
    <path d="m784.4 337.6c-9.1 0-16.6 7.5-16.6 16.6s7.5 16.6 16.6 16.6 16.6-7.5 16.6-16.6c-0.2-9.1-7.5-16.6-16.6-16.6z" class="st3" fill="#ef1541"/>
    <path d="m784.4 292.3c-9.1 0-16.6 7.5-16.6 16.6s7.5 16.6 16.6 16.6 16.6-7.5 16.6-16.6c-0.2-9.1-7.5-16.6-16.6-16.6z" class="st4" fill="#ff7112"/>
    <path d="m784.4 247c-9.1 0-16.6 7.5-16.6 16.6s7.5 16.6 16.6 16.6 16.6-7.5 16.6-16.6c-0.2-9.2-7.5-16.6-16.6-16.6z" class="st5" fill="#fccc12"/>
  </g>
</svg>
