<svg xmlns="http://www.w3.org/2000/svg" xmlns:xlink="http://www.w3.org/1999/xlink" height="1.3em" viewBox="40.5 0 63 20">
  <path fill="#6c3998" d="M55.962 7c0-3.533-3.412-6.376-7.635-6.376h-7.269V19.67h5.076v-6.336h1.543l4.59 6.336h5.766l-5.356-7.473A6.19 6.19 0 0 0 55.967 7m-8.249 3.168h-1.584V3.79h1.584a3.188 3.188 0 1 1 0 6.377M63.76 4.44a7.758 7.758 0 1 0 7.797 7.757 7.764 7.764 0 0 0-7.772-7.757h-.025m0 11.859c-1.34 0-2.476-1.828-2.476-4.061 0-2.233 1.137-4.06 2.476-4.06 1.381 0 2.518 1.827 2.518 4.06-.04 2.233-1.178 4.061-2.518 4.061M98.28 4.767v9.624a2.823 2.823 0 0 1-2.599 1.625c-1.26 0-1.828-.731-1.828-3.126V4.767H83.456l-5.847 5.847V4.726h-5.077V19.63h5.077v-6.009l6.095 6.05h6.376l-7.757-7.756 6.416-6.417v8.857c0 2.924 1.747 5.645 6.213 5.645a7.153 7.153 0 0 0 4.996-2.274l2.271 1.945h1.096V4.767H98.28M104.702 5.821a1.015 1.015 0 0 1 2.03-.007v.007a1.014 1.014 0 1 1-2.03.007V5.82zm1.905 0a.876.876 0 0 0-.86-.893h-.034a.9.9 0 0 0-.893.893.876.876 0 0 0 .859.893h.034a.9.9 0 0 0 .894-.893zm-1.3-.528h.446c.244 0 .406.122.406.325a.308.308 0 0 1-.244.325l.286.406h-.244l-.244-.366h-.203v.325h-.202l-.001-1.015zm.446.488a.19.19 0 0 0 .203-.163c0-.122-.08-.163-.203-.163h-.243v.325l.243.001z"/>
</svg>