<svg xmlns:svg="http://www.w3.org/2000/svg" xmlns="http://www.w3.org/2000/svg" version="1.0" viewBox="0 0 150 58" height="1.7em">
  <path d="M 31.188662,5 C 23.457411,5 16.509912,8.3525 11.719912,13.6875 C 16.293662,14.60126 17.844912,18.45625 17.844912,24.375 L 12.251162,24.375 C 12.251164,20.88876 11.508662,19.0625 9.4386624,19.0625 C 8.5174124,19.0625 7.8086624,19.53875 7.3761624,20.34375 C 7.3111624,20.48 7.2411624,20.61125 7.1886624,20.75 C 7.0236614,21.1925 6.9386624,21.69625 6.9386624,22.28125 C 6.9386614,29.53375 18.844912,29.1725 18.844912,40.3125 C 18.844911,44.67 15.502412,48.71875 11.751162,48.71875 C 16.679913,54.10625 23.428662,57.34375 31.188662,57.34375 C 38.734912,57.34375 45.512412,54.13375 50.282412,49.03125 C 45.887412,47.915 42.063662,41.5875 42.063662,31.53125 C 42.063662,21.04625 45.937412,14.43625 50.563662,13.75 C 45.939912,8.0475 38.216162,5 31.188662,5 z M 21.126162,14.4375 L 27.094912,14.4375 L 27.094912,28.3125 L 33.594912,28.3125 L 33.594912,14.4375 L 39.563662,14.4375 L 39.563662,48.8125 L 33.594912,48.8125 L 33.594912,33.90625 L 27.094912,33.90625 L 27.094912,48.8125 L 21.126162,48.8125 L 21.126162,14.4375 z M 61.219912,14.9375 L 65.657412,48.34375 L 71.001162,48.34375 L 74.032412,27.1875 L 74.126162,27.1875 L 77.032412,48.34375 L 82.563662,48.34375 L 86.251162,20.09375 L 91.438662,20.09375 L 91.438662,48.34375 L 97.532412,48.34375 L 97.532412,20.09375 L 103.12616,20.09375 L 103.12616,48.34375 L 109.21991,48.34375 L 109.21991,14.9375 L 107.81366,14.9375 L 103.12616,14.9375 L 86.938662,14.9375 L 86.188662,14.9375 L 82.563662,14.9375 L 80.188662,34.53125 L 80.063662,34.53125 L 77.407412,14.9375 L 71.907412,14.9375 L 69.001162,34.53125 L 68.907412,34.53125 L 66.751162,14.9375 L 61.219912,14.9375 z M 112.25116,14.9375 L 112.25116,48.34375 L 116.75116,48.34375 L 116.75116,23.84375 L 116.84491,23.84375 L 120.90741,48.34375 L 124.31366,48.34375 L 128.43866,23.84375 L 128.53241,23.84375 L 128.53241,48.34375 L 133.96991,48.34375 L 133.96991,14.9375 L 126.03241,14.9375 L 123.18866,32.0625 L 123.09491,32.0625 L 120.34491,14.9375 L 112.25116,14.9375 z M 136.96991,14.9375 L 136.96991,48.34375 L 151.09491,48.34375 L 151.09491,43.1875 L 143.06366,43.1875 L 143.06366,34.09375 L 148.75116,34.09375 L 148.75116,28.625 L 143.06366,28.625 L 143.06366,20.09375 L 150.78241,20.09375 L 150.78241,14.9375 L 136.96991,14.9375 z M 52.751162,19.40625 C 49.683662,19.40625 48.001162,25.195 48.001162,30.96875 C 48.001162,37.07375 49.606162,42.96875 52.751162,42.96875 C 55.381162,42.96875 57.344912,37.385 57.344912,31.1875 C 57.344912,28.36625 56.413662,19.40625 52.751162,19.40625 z M 5.0011624,30.6875 C 4.9399124,38.27626 7.3074124,43.34375 10.188662,43.34375 C 11.858663,43.34376 13.032412,41.8575 13.032412,39.71875 C 13.032414,35.29376 9.1561624,34.42125 5.0011624,30.6875 z" id="path3428" style="fill:#ed1c24;fill-opacity:1;fill-rule:evenodd;stroke:none"/>
</svg>