<svg viewBox="45 47 220 73" fill="white">
  <g>
    <path d="M185.3,117.3h17.2V46.1h-17.2V117.3z M155.1,97c0,2.5-2.1,4.6-4.6,4.6h-10   c-2.5,0-4.6-2.1-4.6-4.6c0-1,0-28.7,0-28.7h-17.2v30.1c0,12.3,7.9,18.8,19.5,18.8h16.8c10.7,0,17.2-7.7,17.2-18.8V68.3h-17.2   C155.1,68.3,155.1,96.1,155.1,97z M251.8,68.3c0,0,0,27.8,0,28.7c0,2.5-2.1,4.6-4.6,4.6h-10c-2.5,0-4.6-2.1-4.6-4.6   c0-1,0-28.7,0-28.7h-17.2v30.1c0,12.3,7.9,18.8,19.5,18.8h16.8c10.7,0,17.2-7.7,17.2-18.8V68.3H251.8z M87,68.3c0,0-8.9,0-11,0   c-3.9,0-5.8,1-5.8,1V46.1H53v71.1h17.1V88.6c0-2.5,2.1-4.6,4.6-4.6h10c2.5,0,4.6,2.1,4.6,4.6v28.7h17.2V86.3   C106.5,73.3,97.8,68.3,87,68.3z" />
  </g>
</svg>